<svg width="30" height="30" viewBox="0 0 30 30" fill="none" xmlns="http://www.w3.org/2000/svg">
  <path shape-rendering="geometricPrecision" fill-rule="evenodd" clip-rule="evenodd" d="M11.8125 20.1816C11.8125 21.8385 13.1556 23.1816 14.8125 23.1816C16.4694 23.1816 17.8125 21.8385 17.8125 20.1816H11.8125Z" fill="#FFC879"/>
  <path shape-rendering="geometricPrecision" fill-rule="evenodd" clip-rule="evenodd" d="M16.6068 8.12172C16.6234 8.02301 16.632 7.92161 16.632 7.81818C16.632 6.81403 15.818 6 14.8138 6C13.8097 6 12.9957 6.81403 12.9957 7.81818C12.9957 7.92079 13.0042 8.02141 13.0205 8.11938C12.2497 8.38715 11.5413 8.82702 10.9533 9.41498C9.93042 10.4379 9.35575 11.8253 9.35575 13.2719C9.35575 16.8677 8.16573 19.0121 7.13051 20.1974C6.8134 20.5605 7.115 21.4537 7.59707 21.4537H22.0235C22.5056 21.4537 22.8072 20.5605 22.4901 20.1974C21.4549 19.0121 20.2648 16.8677 20.2648 13.2719C20.2648 11.8253 19.6902 10.4379 18.6672 9.41498C18.081 8.82873 17.375 8.38971 16.6068 8.12172Z" fill="#FFC879"/>
</svg>
